<svg width="22" height="22" viewBox="0 0 22 22" fill="none" xmlns="http://www.w3.org/2000/svg">
<path fill-rule="evenodd" clip-rule="evenodd" d="M11 22C17.0751 22 22 17.0751 22 11C22 4.92487 17.0751 0 11 0C4.92487 0 0 4.92487 0 11C0 17.0751 4.92487 22 11 22ZM14.8158 5.84018C14.5354 5.55978 14.0808 5.55978 13.8004 5.84018C13.52 6.12058 13.52 6.57519 13.8004 6.85559L14.7287 7.78388H10.7181C10.3215 7.78388 10.0001 8.10534 10.0001 8.50188C10.0001 8.89842 10.3215 9.21988 10.7181 9.21988H14.7287L13.8004 10.1482C13.52 10.4286 13.52 10.8832 13.8004 11.1636C14.0808 11.444 14.5354 11.444 14.8158 11.1636L16.9698 9.00959C17.2502 8.72919 17.2502 8.27458 16.9698 7.99418L14.8158 5.84018ZM7.3643 16.1635C7.64469 16.4439 8.09931 16.4439 8.3797 16.1635C8.6601 15.8831 8.6601 15.4285 8.3797 15.1481L7.45141 14.2198H11.462C11.8585 14.2198 12.18 13.8983 12.18 13.5018C12.18 13.1052 11.8585 12.7838 11.462 12.7838H7.45141L8.3797 11.8555C8.6601 11.5751 8.6601 11.1205 8.3797 10.8401C8.09931 10.5597 7.64469 10.5597 7.3643 10.8401L5.2103 12.9941C4.9299 13.2745 4.9299 13.7291 5.2103 14.0095L7.3643 16.1635Z" fill="#4DC518"/>
</svg>
