<svg width="26" height="26" viewBox="0 0 26 26" fill="none" xmlns="http://www.w3.org/2000/svg">
<path fill-rule="evenodd" clip-rule="evenodd" d="M0 8C0 3.58172 3.58172 0 8 0H18C22.4183 0 26 3.58172 26 8V18C26 22.4183 22.4183 26 18 26H8C3.58172 26 0 22.4183 0 18V8ZM17.1844 6.00095C16.9574 6.01106 16.7334 6.10209 16.56 6.27403C16.1917 6.63941 16.1917 7.2318 16.56 7.59717L17.7794 8.80678H17.7791L16.5597 7.59718C16.1914 7.23181 16.1914 6.63942 16.5597 6.27404C16.7331 6.10202 16.9573 6.01099 17.1844 6.00095ZM17.2692 13.4839C17.4962 13.4738 17.7202 13.3827 17.8936 13.2108L20.7231 10.404C21.0915 10.0386 21.0915 9.44622 20.7231 9.08084L17.8936 6.27404C17.6987 6.08069 17.4396 5.98966 17.1844 6.00095C17.4397 5.98957 17.6989 6.0806 17.8939 6.27403L20.7234 9.08083C21.0918 9.44621 21.0918 10.0386 20.7234 10.404L17.8939 13.2108C17.7205 13.3828 17.4963 13.4738 17.2692 13.4839ZM17.2692 13.4839C17.0139 13.4952 16.7547 13.4042 16.5597 13.2108C16.1914 12.8454 16.1914 12.253 16.5597 11.8876L17.7792 10.678H12.5107C11.9898 10.678 11.5675 10.2591 11.5675 9.74239C11.5675 9.23874 11.9687 8.82804 12.4714 8.80759C11.9689 8.82819 11.5678 9.23883 11.5678 9.74238C11.5678 10.2591 11.9901 10.678 12.511 10.678H17.7795L16.56 11.8876C16.1917 12.253 16.1917 12.8454 16.56 13.2108C16.7549 13.4041 17.014 13.4952 17.2692 13.4839ZM12.4714 8.80759C12.4845 8.80705 12.4977 8.80678 12.511 8.80678H17.7791L17.7791 8.80679H12.5107C12.4975 8.80679 12.4844 8.80706 12.4714 8.80759ZM5.27625 16.9192L8.10579 19.726C8.29927 19.9179 8.5559 20.009 8.80934 19.9993C8.55581 20.0091 8.29906 19.918 8.1055 19.726L5.27596 16.9192C4.90762 16.5538 4.90762 15.9614 5.27596 15.5961L8.1055 12.7893C8.27891 12.6172 8.50305 12.5262 8.73016 12.5162C8.50315 12.5263 8.27913 12.6173 8.10579 12.7892L5.27625 15.596C4.90792 15.9614 4.90792 16.5538 5.27625 16.9192ZM8.22021 17.1932L9.43965 18.4028C9.80799 18.7682 9.80799 19.3606 9.43965 19.726C9.2648 19.8994 9.03837 19.9905 8.80934 19.9993C9.03827 19.9905 9.26458 19.8994 9.43936 19.726C9.80769 19.3606 9.80769 18.7682 9.43936 18.4029L8.21991 17.1932H8.22021ZM13.5278 17.1924C13.5147 17.1929 13.5015 17.1932 13.4882 17.1932H8.22021L8.2202 17.1932L13.4885 17.1932C13.5017 17.1932 13.5148 17.1929 13.5278 17.1924ZM13.5278 17.1924C14.0304 17.1718 14.4314 16.7612 14.4314 16.2576C14.4314 15.7409 14.0091 15.322 13.4882 15.322L8.21995 15.322L9.43936 14.1124C9.80769 13.747 9.80769 13.1546 9.43936 12.7893C9.24444 12.5959 8.98542 12.5049 8.73016 12.5162C8.98552 12.5048 9.24465 12.5958 9.43965 12.7892C9.80799 13.1546 9.80799 13.747 9.43965 14.1124L8.22024 15.322L13.4885 15.322C14.0094 15.322 14.4317 15.7409 14.4317 16.2576C14.4317 16.7612 14.0305 17.1719 13.5278 17.1924ZM18.1049 6.06106C17.6196 5.57966 16.8337 5.57966 16.3484 6.06106C15.8618 6.54378 15.8618 7.32744 16.3484 7.81017L17.0507 8.50679H12.5107C11.8264 8.50679 11.2675 9.05771 11.2675 9.74239C11.2675 10.4271 11.8264 10.978 12.5107 10.978H17.0508L16.3484 11.6747C15.8618 12.1574 15.8618 12.941 16.3484 13.4238C16.8337 13.9052 17.6196 13.9052 18.1049 13.4238L20.9344 10.617C21.421 10.1342 21.421 9.35058 20.9344 8.86786L18.1049 6.06106ZM7.89422 19.939C8.37952 20.4204 9.16534 20.4204 9.65063 19.939C10.1373 19.4563 10.1373 18.6726 9.65063 18.1899L8.94832 17.4932H13.4882C14.1725 17.4932 14.7314 16.9423 14.7314 16.2576C14.7314 15.5729 14.1725 15.022 13.4882 15.022L8.94836 15.022L9.65063 14.3254C10.1373 13.8427 10.1373 13.059 9.65063 12.5763C9.16534 12.0949 8.37952 12.0949 7.89423 12.5763L5.06468 15.3831C4.57805 15.8658 4.57805 16.6495 5.06468 17.1322L7.89422 19.939Z" fill="white"/>
</svg>
