<svg width="24" height="24" viewBox="0 0 24 24" fill="none" xmlns="http://www.w3.org/2000/svg">
<mask id="path-1-outside-1_684_3090" maskUnits="userSpaceOnUse" x="0" y="0" width="24" height="24" fill="black">
<rect fill="white" width="24" height="24"/>
<path fill-rule="evenodd" clip-rule="evenodd" d="M12 21C16.9706 21 21 16.9706 21 12C21 7.02944 16.9706 3 12 3C7.02944 3 3 7.02944 3 12C3 16.9706 7.02944 21 12 21ZM12 23C18.0751 23 23 18.0751 23 12C23 5.92487 18.0751 1 12 1C5.92487 1 1 5.92487 1 12C1 18.0751 5.92487 23 12 23ZM13.18 14.5019C13.18 14.8984 12.8585 15.2199 12.462 15.2199H8.45141L9.3797 16.1482C9.6601 16.4286 9.6601 16.8832 9.3797 17.1636C9.09931 17.444 8.64469 17.444 8.3643 17.1636L6.2103 15.0096C5.9299 14.7292 5.9299 14.2746 6.2103 13.9942L8.3643 11.8402C8.64469 11.5598 9.09931 11.5598 9.3797 11.8402C9.6601 12.1206 9.6601 12.5752 9.3797 12.8556L8.45141 13.7839H12.462C12.8585 13.7839 13.18 14.1054 13.18 14.5019ZM11.0001 9.502C11.0001 9.10546 11.3215 8.784 11.7181 8.784H15.7287L14.8004 7.8557C14.52 7.57531 14.52 7.12069 14.8004 6.8403C15.0808 6.5599 15.5354 6.5599 15.8158 6.8403L17.9698 8.9943C18.2502 9.27469 18.2502 9.72931 17.9698 10.0097L15.8158 12.1637C15.5354 12.4441 15.0808 12.4441 14.8004 12.1637C14.52 11.8833 14.52 11.4287 14.8004 11.1483L15.7287 10.22H11.7181C11.3215 10.22 11.0001 9.89854 11.0001 9.502Z"/>
</mask>
<path fill-rule="evenodd" clip-rule="evenodd" d="M12 21C16.9706 21 21 16.9706 21 12C21 7.02944 16.9706 3 12 3C7.02944 3 3 7.02944 3 12C3 16.9706 7.02944 21 12 21ZM12 23C18.0751 23 23 18.0751 23 12C23 5.92487 18.0751 1 12 1C5.92487 1 1 5.92487 1 12C1 18.0751 5.92487 23 12 23ZM13.18 14.5019C13.18 14.8984 12.8585 15.2199 12.462 15.2199H8.45141L9.3797 16.1482C9.6601 16.4286 9.6601 16.8832 9.3797 17.1636C9.09931 17.444 8.64469 17.444 8.3643 17.1636L6.2103 15.0096C5.9299 14.7292 5.9299 14.2746 6.2103 13.9942L8.3643 11.8402C8.64469 11.5598 9.09931 11.5598 9.3797 11.8402C9.6601 12.1206 9.6601 12.5752 9.3797 12.8556L8.45141 13.7839H12.462C12.8585 13.7839 13.18 14.1054 13.18 14.5019ZM11.0001 9.502C11.0001 9.10546 11.3215 8.784 11.7181 8.784H15.7287L14.8004 7.8557C14.52 7.57531 14.52 7.12069 14.8004 6.8403C15.0808 6.5599 15.5354 6.5599 15.8158 6.8403L17.9698 8.9943C18.2502 9.27469 18.2502 9.72931 17.9698 10.0097L15.8158 12.1637C15.5354 12.4441 15.0808 12.4441 14.8004 12.1637C14.52 11.8833 14.52 11.4287 14.8004 11.1483L15.7287 10.22H11.7181C11.3215 10.22 11.0001 9.89854 11.0001 9.502Z" fill="#A3A3A3"/>
<path d="M8.45141 15.2199V15.1199C8.41096 15.1199 8.3745 15.1443 8.35902 15.1816C8.34354 15.219 8.3521 15.262 8.3807 15.2906L8.45141 15.2199ZM9.3797 16.1482L9.30899 16.2189L9.3797 16.1482ZM9.3797 17.1636L9.45041 17.2343H9.45041L9.3797 17.1636ZM8.3643 17.1636L8.29359 17.2343L8.3643 17.1636ZM6.2103 15.0096L6.13959 15.0803V15.0803L6.2103 15.0096ZM6.2103 13.9942L6.13959 13.9235L6.2103 13.9942ZM8.3643 11.8402L8.43501 11.9109L8.3643 11.8402ZM9.3797 11.8402L9.45041 11.7695V11.7695L9.3797 11.8402ZM9.3797 12.8556L9.30899 12.7849L9.3797 12.8556ZM8.45141 13.7839L8.38069 13.7132C8.35209 13.7418 8.34354 13.7848 8.35902 13.8222C8.3745 13.8595 8.41096 13.8839 8.45141 13.8839V13.7839ZM15.7287 8.784V8.884C15.7691 8.884 15.8056 8.85964 15.8211 8.82227C15.8365 8.7849 15.828 8.74189 15.7994 8.71329L15.7287 8.784ZM14.8004 7.8557L14.7297 7.92641L14.8004 7.8557ZM15.8158 6.8403L15.8865 6.76959L15.8158 6.8403ZM17.9698 8.9943L17.8991 9.06501L17.9698 8.9943ZM17.9698 10.0097L17.8991 9.93899L17.9698 10.0097ZM15.8158 12.1637L15.8865 12.2344L15.8158 12.1637ZM15.7287 10.22L15.7994 10.2907C15.828 10.2621 15.8365 10.2191 15.8211 10.1817C15.8056 10.1444 15.7691 10.12 15.7287 10.12V10.22ZM20.9 12C20.9 16.9153 16.9153 20.9 12 20.9V21.1C17.0258 21.1 21.1 17.0258 21.1 12H20.9ZM12 3.1C16.9153 3.1 20.9 7.08467 20.9 12H21.1C21.1 6.97421 17.0258 2.9 12 2.9V3.1ZM3.1 12C3.1 7.08467 7.08467 3.1 12 3.1V2.9C6.97421 2.9 2.9 6.97421 2.9 12H3.1ZM12 20.9C7.08467 20.9 3.1 16.9153 3.1 12H2.9C2.9 17.0258 6.97421 21.1 12 21.1V20.9ZM22.9 12C22.9 18.0199 18.0199 22.9 12 22.9V23.1C18.1304 23.1 23.1 18.1304 23.1 12H22.9ZM12 1.1C18.0199 1.1 22.9 5.9801 22.9 12H23.1C23.1 5.86964 18.1304 0.9 12 0.9V1.1ZM1.1 12C1.1 5.9801 5.9801 1.1 12 1.1V0.9C5.86964 0.9 0.9 5.86964 0.9 12H1.1ZM12 22.9C5.9801 22.9 1.1 18.0199 1.1 12H0.9C0.9 18.1304 5.86964 23.1 12 23.1V22.9ZM12.462 15.3199C12.9138 15.3199 13.28 14.9537 13.28 14.5019H13.08C13.08 14.8432 12.8033 15.1199 12.462 15.1199V15.3199ZM8.45141 15.3199H12.462V15.1199H8.45141V15.3199ZM9.45041 16.0775L8.52212 15.1492L8.3807 15.2906L9.30899 16.2189L9.45041 16.0775ZM9.45041 17.2343C9.76986 16.9149 9.76986 16.3969 9.45041 16.0775L9.30899 16.2189C9.55034 16.4602 9.55034 16.8515 9.30899 17.0929L9.45041 17.2343ZM8.29359 17.2343C8.61304 17.5538 9.13096 17.5538 9.45041 17.2343L9.30899 17.0929C9.06765 17.3342 8.67635 17.3342 8.43501 17.0929L8.29359 17.2343ZM6.13959 15.0803L8.29359 17.2343L8.43501 17.0929L6.28101 14.9389L6.13959 15.0803ZM6.13959 13.9235C5.82014 14.2429 5.82014 14.7609 6.13959 15.0803L6.28101 14.9389C6.03966 14.6975 6.03966 14.3062 6.28101 14.0649L6.13959 13.9235ZM8.29359 11.7695L6.13959 13.9235L6.28101 14.0649L8.43501 11.9109L8.29359 11.7695ZM9.45041 11.7695C9.13097 11.45 8.61304 11.45 8.29359 11.7695L8.43501 11.9109C8.67635 11.6696 9.06765 11.6696 9.30899 11.9109L9.45041 11.7695ZM9.45041 12.9263C9.76986 12.6069 9.76986 12.0889 9.45041 11.7695L9.30899 11.9109C9.55034 12.1522 9.55034 12.5435 9.30899 12.7849L9.45041 12.9263ZM8.52212 13.8546L9.45041 12.9263L9.30899 12.7849L8.38069 13.7132L8.52212 13.8546ZM12.462 13.6839H8.45141V13.8839H12.462V13.6839ZM13.28 14.5019C13.28 14.0501 12.9138 13.6839 12.462 13.6839V13.8839C12.8033 13.8839 13.08 14.1606 13.08 14.5019H13.28ZM11.7181 8.684C11.2663 8.684 10.9001 9.05023 10.9001 9.502H11.1001C11.1001 9.16069 11.3768 8.884 11.7181 8.884V8.684ZM15.7287 8.684H11.7181V8.884H15.7287V8.684ZM15.7994 8.71329L14.8711 7.78499L14.7297 7.92641L15.658 8.85471L15.7994 8.71329ZM14.8711 7.78499C14.6297 7.54365 14.6297 7.15235 14.8711 6.91101L14.7297 6.76959C14.4102 7.08904 14.4102 7.60696 14.7297 7.92641L14.8711 7.78499ZM14.8711 6.91101C15.1124 6.66966 15.5037 6.66966 15.7451 6.91101L15.8865 6.76959C15.567 6.45014 15.0491 6.45014 14.7297 6.76959L14.8711 6.91101ZM15.7451 6.91101L17.8991 9.06501L18.0405 8.92359L15.8865 6.76959L15.7451 6.91101ZM17.8991 9.06501C18.1404 9.30635 18.1404 9.69765 17.8991 9.93899L18.0405 10.0804C18.3599 9.76096 18.3599 9.24304 18.0405 8.92359L17.8991 9.06501ZM17.8991 9.93899L15.7451 12.093L15.8865 12.2344L18.0405 10.0804L17.8991 9.93899ZM15.7451 12.093C15.5037 12.3343 15.1124 12.3343 14.8711 12.093L14.7297 12.2344C15.0491 12.5539 15.567 12.5539 15.8865 12.2344L15.7451 12.093ZM14.8711 12.093C14.6297 11.8516 14.6297 11.4604 14.8711 11.219L14.7297 11.0776C14.4102 11.397 14.4102 11.915 14.7297 12.2344L14.8711 12.093ZM14.8711 11.219L15.7994 10.2907L15.658 10.1493L14.7297 11.0776L14.8711 11.219ZM11.7181 10.32H15.7287V10.12H11.7181V10.32ZM10.9001 9.502C10.9001 9.95377 11.2663 10.32 11.7181 10.32V10.12C11.3768 10.12 11.1001 9.84331 11.1001 9.502H10.9001Z" fill="#A3A3A3" mask="url(#path-1-outside-1_684_3090)"/>
</svg>
