<svg width="24" height="24" viewBox="0 0 24 24" fill="none" xmlns="http://www.w3.org/2000/svg">
<path fill-rule="evenodd" clip-rule="evenodd" d="M6.18339 15.3398C6.96028 14.5083 8.05751 14 9.25 14H15.75C16.9425 14 18.0397 14.5083 18.8166 15.3398C19.5891 16.1665 20 17.2582 20 18.3696V20.1089C20 20.601 19.5523 21 19 21C18.4477 21 18 20.601 18 20.1089V18.3696C18 17.636 17.7261 16.958 17.2796 16.4801C16.8375 16.0069 16.2814 15.7822 15.75 15.7822H9.25C8.71858 15.7822 8.16251 16.0069 7.72041 16.4801C7.27387 16.958 7 17.636 7 18.3696V20.1089C7 20.601 6.55228 21 6 21C5.44772 21 5 20.601 5 20.1089V18.3696C5 17.2582 5.41094 16.1665 6.18339 15.3398Z" fill="#2196f3"/>
<path fill-rule="evenodd" clip-rule="evenodd" d="M12.4999 4C10.8991 4 9.59985 5.29911 9.59985 6.90358C9.59985 8.50805 10.8991 9.80716 12.4999 9.80716C14.1006 9.80716 15.3999 8.50805 15.3999 6.90358C15.3999 5.29911 14.1006 4 12.4999 4ZM7.59985 6.90358C7.59985 4.19627 9.79279 2 12.4999 2C15.2069 2 17.3999 4.19627 17.3999 6.90358C17.3999 9.61089 15.2069 11.8072 12.4999 11.8072C9.79279 11.8072 7.59985 9.61089 7.59985 6.90358Z" fill="#2196f3"/>
</svg>