<svg width="22" height="22" viewBox="0 0 22 22" fill="none" xmlns="http://www.w3.org/2000/svg">
<path fill-rule="evenodd" clip-rule="evenodd" d="M11 20C15.9706 20 20 15.9706 20 11C20 6.02944 15.9706 2 11 2C6.02944 2 2 6.02944 2 11C2 15.9706 6.02944 20 11 20ZM11 22C17.0751 22 22 17.0751 22 11C22 4.92487 17.0751 0 11 0C4.92487 0 0 4.92487 0 11C0 17.0751 4.92487 22 11 22ZM6.43026 12.9712C7.05475 12.4262 7.87589 12.1389 8.70825 12.1389H13.2916C14.124 12.1389 14.9451 12.4262 15.5696 12.9712C16.1984 13.52 16.5833 14.2959 16.5833 15.1389V16.1389C16.5833 16.6912 16.1355 17.1389 15.5833 17.1389C15.031 17.1389 14.5833 16.6912 14.5833 16.1389V15.1389C14.5833 14.921 14.4852 14.6795 14.2545 14.4781C14.0195 14.273 13.6748 14.1389 13.2916 14.1389H8.70825C8.32504 14.1389 7.98039 14.273 7.74533 14.4781C7.51461 14.6795 7.41658 14.921 7.41658 15.1389V16.1389C7.41658 16.6912 6.96887 17.1389 6.41658 17.1389C5.8643 17.1389 5.41658 16.6912 5.41658 16.1389V15.1389C5.41658 14.2959 5.80144 13.52 6.43026 12.9712ZM9.24992 7.33329C9.24992 6.36679 10.0334 5.58329 10.9999 5.58329C11.9664 5.58329 12.7499 6.36679 12.7499 7.33329C12.7499 8.29979 11.9664 9.08329 10.9999 9.08329C10.0334 9.08329 9.24992 8.29979 9.24992 7.33329ZM10.9999 3.58329C8.92885 3.58329 7.24992 5.26223 7.24992 7.33329C7.24992 9.40436 8.92885 11.0833 10.9999 11.0833C13.071 11.0833 14.7499 9.40436 14.7499 7.33329C14.7499 5.26223 13.071 3.58329 10.9999 3.58329Z" fill="#2196f3"/>
</svg>