<svg width="22" height="22" viewBox="0 0 22 22" fill="none" xmlns="http://www.w3.org/2000/svg">
<path fill-rule="evenodd" clip-rule="evenodd" d="M22 11C22 17.0751 17.0751 22 11 22C4.92487 22 0 17.0751 0 11C0 4.92487 4.92487 0 11 0C17.0751 0 22 4.92487 22 11ZM6.31958 13.3042C6.91687 12.5874 7.77029 12.1389 8.70825 12.1389H13.2916C14.2295 12.1389 15.083 12.5874 15.6803 13.3042C16.2731 14.0156 16.5833 14.9473 16.5833 15.8889V17.2639C16.5833 17.8162 16.1355 18.2639 15.5833 18.2639C15.031 18.2639 14.5833 17.8162 14.5833 17.2639V15.8889C14.5833 15.3718 14.4105 14.9045 14.1438 14.5845C13.8816 14.2698 13.5692 14.1389 13.2916 14.1389H8.70825C8.43064 14.1389 8.11826 14.2698 7.85602 14.5845C7.58934 14.9045 7.41658 15.3718 7.41658 15.8889V17.2639C7.41658 17.8162 6.96887 18.2639 6.41658 18.2639C5.8643 18.2639 5.41658 17.8162 5.41658 17.2639V15.8889C5.41658 14.9473 5.72671 14.0156 6.31958 13.3042ZM9.24992 7.33329C9.24992 6.36679 10.0334 5.58329 10.9999 5.58329C11.9664 5.58329 12.7499 6.36679 12.7499 7.33329C12.7499 8.29979 11.9664 9.08329 10.9999 9.08329C10.0334 9.08329 9.24992 8.29979 9.24992 7.33329ZM10.9999 3.58329C8.92885 3.58329 7.24992 5.26223 7.24992 7.33329C7.24992 9.40436 8.92885 11.0833 10.9999 11.0833C13.071 11.0833 14.7499 9.40436 14.7499 7.33329C14.7499 5.26223 13.071 3.58329 10.9999 3.58329Z" fill="#4DC518"/>
</svg>
