<svg width="24" height="24" viewBox="0 0 24 24" fill="none" xmlns="http://www.w3.org/2000/svg">
<path fill-rule="evenodd" clip-rule="evenodd" d="M12 2.40426C8.11242 2.40426 5.37143 5.24015 5.37143 9.3136C5.37143 10.3872 5.77624 11.7003 6.44559 13.1138C7.10855 14.5139 7.9995 15.9479 8.9015 17.2455C9.80191 18.5407 10.7038 19.6865 11.3813 20.509C11.6188 20.7973 11.8283 21.0454 12 21.2458C12.1717 21.0454 12.3812 20.7973 12.6187 20.509C13.2962 19.6865 14.1981 18.5407 15.0985 17.2455C16.0005 15.9479 16.8915 14.5139 17.5544 13.1138C18.2238 11.7003 18.6286 10.3872 18.6286 9.3136C18.6286 5.24015 15.8876 2.40426 12 2.40426ZM12 22.2979C11.4977 22.7758 11.4976 22.7757 11.4975 22.7756L11.4913 22.7687L11.4744 22.75C11.4598 22.7338 11.4385 22.71 11.4109 22.6789C11.3557 22.6169 11.2754 22.5259 11.1736 22.4089C10.97 22.1748 10.6803 21.836 10.333 21.4143C9.63903 20.5718 8.71237 19.395 7.78421 18.0598C6.85764 16.7269 5.92002 15.2227 5.21156 13.7265C4.50947 12.2438 4 10.7025 4 9.3136C4 4.4861 7.33417 1 12 1C16.6658 1 20 4.4861 20 9.3136C20 10.7025 19.4905 12.2438 18.7884 13.7265C18.08 15.2227 17.1424 16.7269 16.2158 18.0598C15.2876 19.395 14.361 20.5718 13.667 21.4143C13.3197 21.836 13.03 22.1748 12.8264 22.4089C12.7246 22.5259 12.6443 22.6169 12.5891 22.6789C12.5615 22.71 12.5402 22.7338 12.5256 22.75L12.5087 22.7687L12.5029 22.7752C12.5028 22.7753 12.5023 22.7758 12 22.2979ZM12 22.2979L12.5029 22.7752C12.3732 22.9181 12.1906 23 12 23C11.8094 23 11.6272 22.9185 11.4975 22.7756L12 22.2979Z" fill="#4DC518"/>
<path fill-rule="evenodd" clip-rule="evenodd" d="M12 5.53804C10.4882 5.53804 9.24374 6.8166 9.24374 8.41779C9.24374 10.019 10.4882 11.2975 12 11.2975C13.5119 11.2975 14.7563 10.019 14.7563 8.41779C14.7563 6.8166 13.5119 5.53804 12 5.53804ZM7.87231 8.41779C7.87231 6.06255 9.70995 4.13379 12 4.13379C14.2901 4.13379 16.1278 6.06255 16.1278 8.41779C16.1278 10.773 14.2901 12.7018 12 12.7018C9.70995 12.7018 7.87231 10.773 7.87231 8.41779Z" fill="#4DC518"/>
</svg>
