<svg width="22" height="24" viewBox="0 0 22 24" fill="none" xmlns="http://www.w3.org/2000/svg">
<path fill-rule="evenodd" clip-rule="evenodd" d="M11.6122 0.959877C11.2515 0.680041 10.747 0.680041 10.3863 0.959877L1.13705 8.13508C0.892879 8.3245 0.75 8.61617 0.75 8.9252V20.2005C0.75 21.0103 1.07254 21.7864 1.64582 22.3582C2.21901 22.9299 2.99588 23.2506 3.80538 23.2506H18.1931C19.0026 23.2506 19.7794 22.9299 20.3526 22.3582C20.9259 21.7864 21.2485 21.0103 21.2485 20.2005V8.9252C21.2485 8.61617 21.1056 8.3245 20.8614 8.13508L11.6122 0.959877ZM2.75 20.2005V9.41506L10.9992 3.01563L19.2485 9.41506V20.2005C19.2485 20.4782 19.1379 20.745 18.9403 20.9421C18.7425 21.1393 18.4738 21.2506 18.1931 21.2506H15.2367V14.0503C15.2367 13.498 14.789 13.0503 14.2367 13.0503H8.22467C7.67238 13.0503 7.22467 13.498 7.22467 14.0503V21.2506H3.80538C3.52464 21.2506 3.25592 21.1393 3.0582 20.9421C2.86056 20.745 2.75 20.4782 2.75 20.2005ZM9.22467 21.2506H13.2367V15.0503H9.22467V21.2506Z" fill="#A3A3A3"/>
</svg>
