<svg width="22" height="24" viewBox="0 0 22 24" fill="none" xmlns="http://www.w3.org/2000/svg">
<path fill-rule="evenodd" clip-rule="evenodd" d="M11 1.5L1.5 8.85V20.4C1.5 20.957 1.72242 21.4911 2.11833 21.8849C2.51424 22.2787 3.05121 22.5 3.61111 22.5H7.82239C7.72893 22.3479 7.67504 22.1689 7.67504 21.9773V15.3864C7.67504 14.8341 8.12276 14.3864 8.67504 14.3864H13.325C13.8773 14.3864 14.325 14.8341 14.325 15.3864V21.9773C14.325 22.1689 14.2712 22.3479 14.1777 22.5H18.3889C18.9488 22.5 19.4858 22.2787 19.8817 21.8849C20.2776 21.4911 20.5 20.957 20.5 20.4V8.85L11 1.5Z" fill="#2196f3"/>
<path d="M1.5 8.85L0.582118 7.66362C0.214948 7.94769 0 8.38577 0 8.85H1.5ZM11 1.5L11.9179 0.313622C11.3774 -0.104541 10.6226 -0.104541 10.0821 0.313622L11 1.5ZM2.11833 21.8849L3.17619 20.8215L3.17619 20.8215L2.11833 21.8849ZM7.82239 22.5V24C8.36561 24 8.86639 23.7063 9.13155 23.2322C9.39671 22.7581 9.38481 22.1776 9.10044 21.7148L7.82239 22.5ZM14.1777 22.5L12.8996 21.7148C12.6153 22.1776 12.6034 22.7581 12.8685 23.2322C13.1337 23.7063 13.6345 24 14.1777 24V22.5ZM19.8817 21.8849L18.8238 20.8215L18.8238 20.8215L19.8817 21.8849ZM20.5 8.85H22C22 8.38577 21.7851 7.94769 21.4179 7.66362L20.5 8.85ZM2.41788 10.0364L11.9179 2.68638L10.0821 0.313622L0.582118 7.66362L2.41788 10.0364ZM3 20.4V8.85H0V20.4H3ZM3.17619 20.8215C3.06245 20.7083 3 20.5566 3 20.4H0C0 21.3573 0.382389 22.2739 1.06047 22.9484L3.17619 20.8215ZM3.61111 21C3.44649 21 3.29019 20.9349 3.17619 20.8215L1.06047 22.9484C1.73829 23.6226 2.65593 24 3.61111 24V21ZM7.82239 21H3.61111V24H7.82239V21ZM9.10044 21.7148C9.14796 21.7921 9.17504 21.8838 9.17504 21.9773H6.17504C6.17504 22.4539 6.30991 22.9037 6.54433 23.2852L9.10044 21.7148ZM9.17504 21.9773V15.3864H6.17504V21.9773H9.17504ZM9.17504 15.3864C9.17504 15.6625 8.95119 15.8864 8.67504 15.8864V12.8864C7.29433 12.8864 6.17504 14.0056 6.17504 15.3864H9.17504ZM8.67504 15.8864H13.325V12.8864H8.67504V15.8864ZM13.325 15.8864C13.0489 15.8864 12.825 15.6625 12.825 15.3864H15.825C15.825 14.0056 14.7058 12.8864 13.325 12.8864V15.8864ZM12.825 15.3864V21.9773H15.825V15.3864H12.825ZM12.825 21.9773C12.825 21.8838 12.8521 21.7921 12.8996 21.7148L15.4558 23.2852C15.6902 22.9037 15.825 22.4539 15.825 21.9773H12.825ZM18.3889 21H14.1777V24H18.3889V21ZM18.8238 20.8215C18.7098 20.9349 18.5535 21 18.3889 21V24C19.3441 24 20.2617 23.6226 20.9395 22.9484L18.8238 20.8215ZM19 20.4C19 20.5566 18.9375 20.7083 18.8238 20.8215L20.9395 22.9484C21.6176 22.2739 22 21.3573 22 20.4H19ZM19 8.85V20.4H22V8.85H19ZM10.0821 2.68638L19.5821 10.0364L21.4179 7.66362L11.9179 0.313622L10.0821 2.68638Z" fill="#2196f3"/>
</svg>