<svg width="24" height="24" viewBox="0 0 24 24" fill="none" xmlns="http://www.w3.org/2000/svg">
<path d="M5.24966 19.5H18.7497C19.0347 19.5001 19.3091 19.6084 19.5173 19.803C19.7256 19.9976 19.8523 20.2639 19.8717 20.5483C19.8911 20.8327 19.8019 21.1138 19.622 21.3349C19.4421 21.5561 19.185 21.7006 18.9027 21.7395L18.7497 21.75H5.24966C4.96462 21.7499 4.69025 21.6416 4.48197 21.447C4.27369 21.2524 4.14705 20.9861 4.12762 20.7017C4.10819 20.4173 4.19743 20.1362 4.37731 19.9151C4.55718 19.6939 4.81428 19.5494 5.09666 19.5105L5.24966 19.5H18.7497H5.24966ZM11.8467 1.5105L11.9997 1.5C12.2715 1.50001 12.5342 1.59846 12.7391 1.77715C12.9439 1.95584 13.0772 2.20267 13.1142 2.472L13.1247 2.625V14.157L16.5072 10.776C16.6979 10.5853 16.9508 10.4695 17.2198 10.4497C17.4888 10.4298 17.756 10.5073 17.9727 10.668L18.0987 10.776C18.2894 10.9668 18.4052 11.2197 18.425 11.4887C18.4448 11.7577 18.3673 12.0248 18.2067 12.2415L18.0987 12.3675L12.7947 17.67C12.6042 17.8605 12.3516 17.9764 12.083 17.9965C11.8143 18.0166 11.5474 17.9396 11.3307 17.7795L11.2047 17.67L5.90066 12.3675C5.69937 12.1668 5.58154 11.8973 5.57085 11.6132C5.56017 11.3291 5.65743 11.0515 5.84308 10.8362C6.02872 10.6209 6.28899 10.4839 6.57154 10.4527C6.8541 10.4215 7.138 10.4984 7.36616 10.668L7.49216 10.776L10.8747 14.16V2.625C10.8747 2.35314 10.9731 2.09049 11.1518 1.8856C11.3305 1.68072 11.5773 1.54747 11.8467 1.5105L11.9997 1.5L11.8467 1.5105Z" fill="#4DC518"/>
</svg>
