<svg width="24" height="24" viewBox="0 0 24 24" fill="none" xmlns="http://www.w3.org/2000/svg">
<path fill-rule="evenodd" clip-rule="evenodd" d="M1 9.61905C1 8.17259 2.15263 7 3.57447 7H20.4255C21.8474 7 23 8.17259 23 9.61905V14.381C23 15.8274 21.8474 17 20.4255 17H3.57447C2.15263 17 1 15.8274 1 14.381V9.61905ZM3.57447 8.42857C2.92818 8.42857 2.40426 8.96157 2.40426 9.61905V14.381C2.40426 15.0384 2.92818 15.5714 3.57447 15.5714H20.4255C21.0718 15.5714 21.5957 15.0384 21.5957 14.381V9.61905C21.5957 8.96157 21.0718 8.42857 20.4255 8.42857H3.57447Z" fill="#4DC518"/>
<path d="M7.44083 10.2095H6.45785L6.67317 11.5333L5.63403 10.6952L5.15658 11.5714L6.36424 11.9999L5.14722 12.4476L5.66211 13.3619L6.66381 12.4952L6.45785 13.8095H7.43147L7.21615 12.4952L8.22722 13.3428L8.71403 12.4571L7.497 12.0095L8.71403 11.5619L8.24594 10.7047L7.21615 11.5333L7.44083 10.2095Z" fill="#4DC518"/>
<path d="M12.2862 10.2095H11.3033L11.5186 11.5333L10.4794 10.6952L10.002 11.5714L11.2097 11.9999L9.99263 12.4476L10.5075 13.3619L11.5092 12.4952L11.3033 13.8095H12.2769L12.0616 12.4952L13.0726 13.3428L13.5594 12.4571L12.3424 12.0095L13.5594 11.5619L13.0914 10.7047L12.0616 11.5333L12.2862 10.2095Z" fill="#4DC518"/>
<path d="M17.1317 10.2095H16.1487L16.364 11.5333L15.3248 10.6952L14.8474 11.5714L16.0551 11.9999L14.838 12.4476L15.3529 13.3619L16.3546 12.4952L16.1487 13.8095H17.1223L16.907 12.4952L17.918 13.3428L18.4049 12.4571L17.1878 12.0095L18.4049 11.5619L17.9368 10.7047L16.907 11.5333L17.1317 10.2095Z" fill="#4DC518"/>
</svg>
