<svg width="24" height="24" viewBox="0 0 24 24" fill="none" xmlns="http://www.w3.org/2000/svg">
<path d="M3.53938 7.6839L8.48254 12L3.53938 16.316C3.242 16.5757 3.2101 17.0288 3.46824 17.328C3.72639 17.6271 4.17671 17.6591 4.47409 17.3995L9.57038 12.9498L11.5328 14.6633C11.6669 14.7803 11.8335 14.8388 12.0001 14.8388C12.1668 14.8388 12.3334 14.7803 12.4675 14.6633L14.4299 12.9498L19.5262 17.3995C19.8236 17.6592 20.2739 17.6271 20.532 17.328C20.7902 17.0288 20.7583 16.5757 20.4609 16.316L15.5177 12L20.4609 7.6839C20.7583 7.4242 20.7902 6.97118 20.532 6.67196C20.2739 6.37274 19.8235 6.34075 19.5262 6.60039C19.1115 6.96244 12.4416 12.7861 12.0001 13.1716C11.5585 12.7861 4.88859 6.96234 4.47409 6.60039C4.17671 6.34075 3.72634 6.37284 3.46824 6.67196C3.2101 6.97118 3.242 7.4242 3.53938 7.6839Z" fill="#4DC518"/>
<path d="M22.2871 4H1.713C1.31924 4 1 4.32121 1 4.71734V19.2827C1 19.6789 1.31924 20 1.713 20H22.287C22.6808 20 23 19.6789 23 19.2827V4.71734C23 4.32121 22.6809 4 22.2871 4ZM21.5741 18.5654H21.574H2.42604V5.43463H21.5741V18.5654Z" fill="#4DC518"/>
</svg>
