<svg width="22" height="22" viewBox="0 0 22 22" fill="none" xmlns="http://www.w3.org/2000/svg">
<g clip-path="url(#clip0_509_111)">
<path d="M12 1L2 13H11L10 21L20 9H11L12 1Z" fill="black"/>
<path fill-rule="evenodd" clip-rule="evenodd" d="M12.3982 0.0827545C12.8054 0.259523 13.0474 0.683592 12.9923 1.12409L12.1328 8.00006H20C20.388 8.00006 20.741 8.22452 20.9056 8.5759C21.0702 8.92729 21.0166 9.34216 20.7682 9.64024L10.7682 21.6402C10.484 21.9813 10.009 22.0941 9.60182 21.9174C9.1946 21.7406 8.95267 21.3165 9.00773 20.876L9.86723 14.0001H2.00001C1.61199 14.0001 1.259 13.7756 1.09442 13.4242C0.929843 13.0728 0.983388 12.658 1.23179 12.3599L11.2318 0.359872C11.516 0.0188374 11.991 -0.0940143 12.3982 0.0827545ZM4.13505 12.0001H11C11.2868 12.0001 11.5599 12.1232 11.7497 12.3383C11.9395 12.5533 12.0279 12.8395 11.9923 13.1241L11.4154 17.7396L17.865 10.0001H11C10.7132 10.0001 10.4402 9.87689 10.2503 9.66186C10.0605 9.44683 9.97216 9.16064 10.0077 8.87602L10.5847 4.26051L4.13505 12.0001Z" fill="black"/>
</g>
<defs>
<clipPath id="clip0_509_111">
<rect width="22" height="22" fill="white"/>
</clipPath>
</defs>
</svg>
