<svg width="22" height="22" viewBox="0 0 22 22" fill="none" xmlns="http://www.w3.org/2000/svg">
<g clip-path="url(#clip0_509_105)">
<path d="M12.5002 7L12.0003 1L9.57031 3.92" fill="black"/>
<path fill-rule="evenodd" clip-rule="evenodd" d="M12.3011 0.0463396C12.6882 0.168426 12.9632 0.512458 12.9969 0.917012L13.4968 6.91701C13.532 7.33977 13.2967 7.73874 12.9096 7.91241C12.5226 8.08608 12.0681 7.99664 11.7757 7.68928L8.84578 4.60928C8.49606 4.24165 8.4771 3.67039 8.80166 3.28038L11.2317 0.36038C11.4913 0.0483406 11.9139 -0.0757471 12.3011 0.0463396ZM10.9083 3.87563L11.268 4.25375L11.2066 3.51715L10.9083 3.87563Z" fill="black"/>
<path d="M17.5699 11.9101L19.9999 9.00015L13 7.48438L12.5 7" fill="black"/>
<path fill-rule="evenodd" clip-rule="evenodd" d="M11.7817 6.30377C12.1659 5.90709 12.7989 5.89697 13.1957 6.28118L13.4908 6.56699L20.2115 8.02231C20.5535 8.09637 20.8319 8.34381 20.9456 8.67477C21.0593 9.00572 20.9917 9.37202 20.7674 9.64062L18.3374 12.5506C18.1593 12.764 17.9003 12.8936 17.6227 12.9083C17.3451 12.9229 17.0739 12.8214 16.8742 12.628L12.3142 8.21171C12.3108 8.20854 12.3075 8.20535 12.3042 8.20213L11.8043 7.71785C11.4076 7.33359 11.3974 6.70045 11.7817 6.30377ZM16.2122 9.20264L17.4923 10.4424L18.173 9.62724L16.2122 9.20264Z" fill="black"/>
<path d="M7 7L2 13H11L10 21L15 15" fill="black"/>
<path fill-rule="evenodd" clip-rule="evenodd" d="M7.6402 6.2318C8.06447 6.58537 8.1218 7.21593 7.76823 7.64021L4.13505 12H11C11.2868 12 11.5599 12.1232 11.7497 12.3382C11.9395 12.5533 12.0279 12.8394 11.9923 13.1241L11.4154 17.7396L14.2318 14.3598C14.5854 13.9356 15.2159 13.8782 15.6402 14.2318C16.0645 14.5854 16.1218 15.2159 15.7682 15.6402L10.7682 21.6402C10.484 21.9812 10.009 22.0941 9.60182 21.9173C9.1946 21.7406 8.95267 21.3165 9.00773 20.876L9.86723 14H2.00001C1.61199 14 1.259 13.7756 1.09442 13.4242C0.929843 13.0728 0.983388 12.6579 1.23179 12.3598L6.23179 6.35984C6.58536 5.93556 7.21592 5.87824 7.6402 6.2318Z" fill="black"/>
<path fill-rule="evenodd" clip-rule="evenodd" d="M0.292893 0.292893C0.683417 -0.0976311 1.31658 -0.0976311 1.70711 0.292893L21.7071 20.2929C22.0976 20.6834 22.0976 21.3166 21.7071 21.7071C21.3166 22.0976 20.6834 22.0976 20.2929 21.7071L0.292893 1.70711C-0.0976311 1.31658 -0.0976311 0.683417 0.292893 0.292893Z" fill="black"/>
</g>
<defs>
<clipPath id="clip0_509_105">
<rect width="22" height="22" fill="white"/>
</clipPath>
</defs>
</svg>
