<svg width="28" height="28" viewBox="0 0 28 28" fill="none" xmlns="http://www.w3.org/2000/svg">
<path fill-rule="evenodd" clip-rule="evenodd" d="M13.9995 27C21.1792 27 26.9995 21.1797 26.9995 14C26.9995 6.8203 21.1792 1 13.9995 1C6.81981 1 0.999512 6.8203 0.999512 14C0.999512 21.1797 6.81981 27 13.9995 27ZM10.0675 13.368C10.8355 13.368 11.1955 12.972 11.1955 12.312C11.1955 11.688 10.8355 11.28 10.0675 11.28H8.79551V13.368H10.0675ZM6.74351 18V9.576H10.1875C12.2515 9.576 13.2835 10.764 13.2835 12.228C13.2835 13.284 12.7075 14.28 11.4115 14.664L13.3555 18H11.0395L9.28751 14.82H8.79551V18H6.74351ZM16.8636 11.304V12.252C17.2356 11.664 17.9436 11.208 18.9276 11.208C20.5716 11.208 21.8796 12.528 21.8796 14.64C21.8796 16.752 20.5716 18.096 18.9276 18.096C17.9436 18.096 17.2356 17.628 16.8636 17.064V21.192H14.8116V11.304H16.8636ZM18.3156 16.308C19.0956 16.308 19.7916 15.708 19.7916 14.64C19.7916 13.572 19.0956 12.996 18.3156 12.996C17.5476 12.996 16.8516 13.584 16.8516 14.652C16.8516 15.72 17.5476 16.308 18.3156 16.308Z" fill="white"/>
</svg>
