<svg width="78" height="77" viewBox="0 0 78 77" fill="none" xmlns="http://www.w3.org/2000/svg">
<path fill-rule="evenodd" clip-rule="evenodd" d="M28.2769 1.08992C25.2324 1.57436 22.1611 3.19059 19.9436 5.47527C17.4424 8.05262 15.8764 11.5273 15.5948 15.1247L15.5 16.3343H17.655H19.81V15.815C19.81 14.9788 20.2285 13.1121 20.6476 12.0795C21.6708 9.55814 23.8599 7.30059 26.3307 6.21909C30.3409 4.46372 34.9428 5.4068 38.0133 8.6133C39.851 10.5322 40.8353 12.6808 41.0971 15.3446L41.1945 16.3343H43.329H45.4634L45.3645 15.0787C44.9272 9.52545 41.4018 4.44554 36.4593 2.24678C34.5749 1.40853 33.1079 1.07775 30.9807 1.01162C29.9632 0.979952 28.7465 1.01529 28.2769 1.08992ZM28.9885 9.94464C27.7903 10.2536 26.8933 10.7811 25.9899 11.7085C25.0594 12.6638 24.4969 13.7156 24.2377 14.9853C24.1319 15.5034 24.0791 18.5019 24.0791 23.9843V32.2063L23.6166 32.1056C21.1652 31.5716 19.1042 32.1545 17.4518 33.8494C16.5212 34.8039 15.9589 35.8552 15.6996 37.1254C15.4898 38.1535 15.4843 52.324 15.693 54.2788C16.5795 62.5821 21.4439 69.7568 28.7313 73.5102C37.4359 77.9934 48.0358 76.3153 55.0815 69.3386C59.2616 65.1995 61.7389 60.0668 62.3501 54.2788C62.5559 52.3292 62.5475 42.5275 62.339 41.5241C62.0759 40.2577 61.5103 39.2008 60.5856 38.2481C59.1059 36.7235 57.0964 36.0387 55.1239 36.3873C54.5887 36.4818 54.0579 36.5961 53.9442 36.6409C53.8018 36.6972 53.6777 36.5507 53.5449 36.1689C52.5524 33.3168 49.4878 31.4758 46.5858 31.9886C46.0507 32.0831 45.5199 32.1974 45.4062 32.2422C45.2637 32.2985 45.1396 32.1521 45.0069 31.7702C44.7015 30.8927 43.9604 29.7939 43.2224 29.1247C41.6541 27.7023 39.6218 27.2117 37.3486 27.7069L36.8862 27.8076V21.7849C36.8862 17.8495 36.8302 15.493 36.7248 14.9853C36.4624 13.7222 35.8956 12.6619 34.9714 11.7051C33.3666 10.0441 31.142 9.38953 28.9885 9.94464ZM31.4824 14.4301C31.844 14.6202 32.1463 14.9316 32.3307 15.3042C32.6122 15.8726 32.6171 16.1396 32.6171 30.4776V45.0725H34.7516H36.8862V39.3483C36.8862 33.9008 36.9 33.5963 37.1726 33.0456C37.4948 32.395 38.3146 31.8764 39.0207 31.8764C39.7268 31.8764 40.5466 32.395 40.8688 33.0456C41.1414 33.5963 41.1552 33.9008 41.1552 39.3483V45.0725H43.2897H45.4242V41.5477C45.4242 38.3044 45.4472 37.9767 45.7107 37.4443C46.0329 36.7937 46.8527 36.2751 47.5588 36.2751C48.2649 36.2751 49.0847 36.7937 49.4068 37.4443C49.6704 37.9767 49.6933 38.3044 49.6933 41.5477V45.0725H51.8278H53.9623V43.747C53.9623 42.735 54.0261 42.2927 54.2323 41.8764C54.5453 41.244 55.4245 40.6738 56.0863 40.6738C56.8143 40.6738 57.6207 41.1884 57.957 41.8674C58.2491 42.4576 58.2543 42.601 58.1931 48.4269C58.1374 53.7246 58.0986 54.5289 57.8426 55.7027C56.6942 60.9656 53.8254 65.3625 49.6604 68.2429C47.5252 69.7196 45.2973 70.6694 42.5604 71.27C40.8985 71.6346 37.1436 71.6339 35.4632 71.2685C27.6847 69.5773 21.9721 63.7532 20.1955 55.7027C19.9254 54.4784 19.9002 53.7939 19.8476 46.2223C19.7918 38.1869 19.7955 38.0523 20.0869 37.4635C20.4188 36.7934 21.2289 36.2751 21.9445 36.2751C22.6506 36.2751 23.4704 36.7937 23.7926 37.4443C24.0692 38.003 24.0791 38.2945 24.0791 45.9464V53.8699H26.2136H28.3481L28.3541 34.8455C28.3598 16.8103 28.3733 15.7953 28.6163 15.3256C28.9317 14.7159 29.8255 14.1367 30.4527 14.1357C30.7102 14.1353 31.1736 14.2678 31.4824 14.4301Z" fill="#FBFBFB"/>
</svg>
