<svg width="29" height="28" viewBox="0 0 29 28" fill="none" xmlns="http://www.w3.org/2000/svg">
<circle cx="14.5" cy="14" r="11.5" stroke="black" stroke-width="3"/>
<path fill-rule="evenodd" clip-rule="evenodd" d="M19.2908 9.20921C19.5697 9.48816 19.5697 9.94042 19.2908 10.2194L10.7194 18.7908C10.4404 19.0697 9.98816 19.0697 9.70921 18.7908C9.43026 18.5118 9.43026 18.0596 9.70921 17.7806L18.2806 9.20921C18.5596 8.93026 19.0118 8.93026 19.2908 9.20921Z" fill="#1E73BE"/>
<path fill-rule="evenodd" clip-rule="evenodd" d="M9.70921 9.20921C9.98816 8.93026 10.4404 8.93026 10.7194 9.20921L19.2908 17.7806C19.5697 18.0596 19.5697 18.5118 19.2908 18.7908C19.0118 19.0697 18.5596 19.0697 18.2806 18.7908L9.70921 10.2194C9.43026 9.94042 9.43026 9.48816 9.70921 9.20921Z" fill="#1E73BE"/>
<path fill-rule="evenodd" clip-rule="evenodd" d="M9.17888 8.67888C9.75072 8.10704 10.6779 8.10704 11.2497 8.67888L14.5 11.9292L17.7503 8.67888C18.3221 8.10704 19.2493 8.10704 19.8211 8.67888C20.393 9.25072 20.393 10.1779 19.8211 10.7497L16.5708 14L19.8211 17.2503C20.393 17.8221 20.393 18.7493 19.8211 19.3211C19.2493 19.893 18.3221 19.893 17.7503 19.3211L14.5 16.0708L11.2497 19.3211C10.6779 19.893 9.75072 19.893 9.17888 19.3211C8.60704 18.7493 8.60704 17.8221 9.17888 17.2503L12.4292 14L9.17888 10.7497C8.60704 10.1779 8.60704 9.25072 9.17888 8.67888ZM10.189 18.2605C10.1891 18.2604 10.1891 18.2604 10.1891 18.2604L10.189 18.2605ZM10.2395 18.311L10.2397 18.3108L10.2395 18.311ZM18.7605 18.311C18.7604 18.3109 18.7604 18.3109 18.7603 18.3108L18.7605 18.311ZM18.811 9.73954C18.8109 9.73958 18.8109 9.73963 18.8108 9.73967L18.811 9.73954ZM18.7605 9.68903L18.7604 9.68914C18.7604 9.6891 18.7604 9.68907 18.7605 9.68903ZM18.811 18.2605L18.8108 18.2603L18.811 18.2605Z" fill="#E74C3C"/>
</svg>
