<svg width="22" height="22" viewBox="0 0 22 22" fill="none" xmlns="http://www.w3.org/2000/svg">
<rect x="4" y="2" width="14" height="18" rx="1" stroke="black" stroke-width="2"/>
<path fill-rule="evenodd" clip-rule="evenodd" d="M14.4714 7.5286C14.7318 7.78894 14.7318 8.21105 14.4714 8.4714L8.4714 14.4714C8.21105 14.7318 7.78894 14.7318 7.5286 14.4714C7.26825 14.2111 7.26825 13.7889 7.5286 13.5286L13.5286 7.5286C13.7889 7.26825 14.2111 7.26825 14.4714 7.5286Z" fill="#E74C3C"/>
<path fill-rule="evenodd" clip-rule="evenodd" d="M13.2929 7.29289C13.6834 6.90237 14.3166 6.90237 14.7071 7.29289C15.0976 7.68342 15.0976 8.31658 14.7071 8.70711L8.70711 14.7071C8.31658 15.0976 7.68342 15.0976 7.29289 14.7071C6.90237 14.3166 6.90237 13.6834 7.29289 13.2929L13.2929 7.29289ZM14.2357 7.7643C14.1055 7.63412 13.8945 7.63412 13.7643 7.7643L7.7643 13.7643C7.63412 13.8945 7.63412 14.1055 7.7643 14.2357C7.89447 14.3659 8.10553 14.3659 8.2357 14.2357L14.2357 8.2357C14.3659 8.10553 14.3659 7.89447 14.2357 7.7643Z" fill="#E74C3C"/>
<path fill-rule="evenodd" clip-rule="evenodd" d="M7.5286 7.5286C7.78894 7.26825 8.21105 7.26825 8.4714 7.5286L14.4714 13.5286C14.7318 13.7889 14.7318 14.2111 14.4714 14.4714C14.2111 14.7318 13.7889 14.7318 13.5286 14.4714L7.5286 8.4714C7.26825 8.21105 7.26825 7.78894 7.5286 7.5286Z" fill="#E74C3C"/>
<path fill-rule="evenodd" clip-rule="evenodd" d="M7.29289 7.29289C7.68342 6.90237 8.31658 6.90237 8.70711 7.29289L14.7071 13.2929C15.0976 13.6834 15.0976 14.3166 14.7071 14.7071C14.3166 15.0976 13.6834 15.0976 13.2929 14.7071L7.29289 8.70711C6.90237 8.31658 6.90237 7.68342 7.29289 7.29289ZM8.2357 7.7643C8.10553 7.63412 7.89447 7.63412 7.7643 7.7643C7.63412 7.89447 7.63412 8.10553 7.7643 8.2357L13.7643 14.2357C13.8945 14.3659 14.1055 14.3659 14.2357 14.2357C14.3659 14.1055 14.3659 13.8945 14.2357 13.7643L8.2357 7.7643Z" fill="#E74C3C"/>
</svg>
