<svg width="26" height="26" viewBox="0 0 26 26" fill="none" xmlns="http://www.w3.org/2000/svg">
<g clip-path="url(#clip0_745_14023)">
<path d="M1.07075 15.6556V15.6679H5.40612C5.50505 14.5948 6.39773 13.7527 7.49583 13.7527C8.59392 13.7527 9.4866 14.5948 9.58553 15.6679H16.0502C16.1491 14.5948 17.0418 13.7527 18.1399 13.7527C19.238 13.7527 20.1307 14.5948 20.2296 15.6679H24.9298V15.6556C25.5851 15.069 26.0006 14.22 26.0006 13.2703V8.68995C26.0006 6.92263 24.5679 5.48934 22.8 5.48934H19.2071C18.7637 3.04116 16.1532 1.15222 13.0003 1.15222C9.8474 1.15222 7.23687 3.04116 6.79344 5.4905H3.20061C1.43271 5.4905 0 6.92379 0 8.69111V13.2721C0 14.2206 0.415497 15.0708 1.07075 15.6556ZM13.0003 4.06303C14.3969 4.06303 15.6574 4.67696 16.1503 5.49167H9.85089C10.3426 4.67522 11.6031 4.06303 13.0003 4.06303ZM24.9298 16.8311V21.6478C24.9298 23.4151 23.4971 24.8484 21.7292 24.8484H4.27136C2.50346 24.8484 1.07075 23.4151 1.07075 21.6478V16.8317H5.40612C5.50505 17.9048 6.39773 18.748 7.49583 18.748C8.59392 18.748 9.4866 17.9048 9.58553 16.8317H16.0502C16.1491 17.9048 17.0418 18.748 18.1399 18.748C19.238 18.748 20.1307 17.9048 20.2296 16.8317H24.9298V16.8311Z" fill="white"/>
</g>
<defs>
<clipPath id="clip0_745_14023">
<rect width="26.0006" height="26" fill="white"/>
</clipPath>
</defs>
</svg>
