<svg width="24" height="24" viewBox="0 0 24 24" fill="none" xmlns="http://www.w3.org/2000/svg">
<path d="M19 22.25H5C4.30964 22.25 3.75 21.6904 3.75 21V3C3.75 2.30964 4.30964 1.75 5 1.75H15.1716C15.5031 1.75 15.821 1.8817 16.0555 2.11612L17.9697 4.03033L19.8839 5.94454C20.1183 6.17896 20.25 6.49691 20.25 6.82843V21C20.25 21.6904 19.6904 22.25 19 22.25Z" stroke="#2196f3" stroke-width="1.5" fill="#ffffff"/>
<rect x="7" y="17" width="10" height="1.5" rx="0.75" fill="#2196f3"/>
<rect x="7" y="14" width="10" height="1.5" rx="0.75" fill="#2196f3"/>
<rect x="7" y="11" width="10" height="1.5" rx="0.75" fill="#2196f3"/>
<rect x="7" y="6" width="8" height="1.5" rx="0.75" fill="#2196f3"/>
</svg>