<svg width="24" height="24" viewBox="0 0 24 24" fill="none" xmlns="http://www.w3.org/2000/svg">
<path fill-rule="evenodd" clip-rule="evenodd" d="M12 2C12.4091 2 12.7407 2.33164 12.7407 2.74074V12.3704C12.7407 12.7795 12.4091 13.1111 12 13.1111C11.5909 13.1111 11.2593 12.7795 11.2593 12.3704V2.74074C11.2593 2.33164 11.5909 2 12 2ZM6.11062 5.58193C6.11062 5.58193 6.11062 5.58193 6.11062 5.58193C6.11055 5.58197 6.11048 5.58202 6.1104 5.58207L6.09786 5.59078C6.08441 5.60029 6.06104 5.61721 6.02915 5.64184C5.96533 5.69113 5.86764 5.77107 5.74712 5.88396C5.50601 6.1098 5.17464 6.46644 4.84006 6.97233C4.17523 7.97755 3.48148 9.59579 3.48148 12C3.48148 14.2593 4.37897 16.426 5.9765 18.0235C7.57403 19.621 9.74075 20.5185 12 20.5185C14.2593 20.5185 16.426 19.621 18.0235 18.0235C19.621 16.426 20.5185 14.2593 20.5185 12C20.5185 9.59579 19.8248 7.97755 19.1599 6.97233C18.8254 6.46644 18.494 6.1098 18.2529 5.88396C18.1324 5.77107 18.0347 5.69113 17.9708 5.64184C17.939 5.61721 17.9156 5.60029 17.9021 5.59078L17.8896 5.58207L17.8906 5.58274L17.8917 5.58344L17.8923 5.58386M17.8894 5.58191C17.8894 5.58191 17.8894 5.58191 17.8893 5.58191C17.5492 5.35831 17.453 4.90164 17.6749 4.5597C17.8977 4.21654 18.3564 4.1189 18.6996 4.34161L18.2963 4.96296C18.6996 4.34161 18.6999 4.34186 18.7003 4.34211L18.7012 4.34266L18.7031 4.34389L18.7076 4.34691L18.72 4.3552C18.7296 4.36172 18.742 4.37025 18.757 4.38083C18.787 4.40199 18.8272 4.43138 18.8764 4.46932C18.9746 4.54517 19.1084 4.65541 19.2656 4.80271C19.5801 5.09724 19.9895 5.54097 20.3956 6.15508C21.2123 7.38986 22 9.29014 22 12C22 14.6522 20.9464 17.1957 19.0711 19.0711C17.1957 20.9464 14.6522 22 12 22C9.34784 22 6.8043 20.9464 4.92893 19.0711C3.05357 17.1957 2 14.6522 2 12C2 9.29014 2.78773 7.38986 3.60438 6.15508C4.01054 5.54097 4.41992 5.09724 4.73436 4.80271C4.89162 4.65541 5.02541 4.54517 5.12363 4.46932C5.17275 4.43138 5.21304 4.40199 5.24299 4.38083C5.25797 4.37025 5.27037 4.36172 5.28 4.3552L5.29236 4.34691L5.29695 4.34389L5.29883 4.34266L5.29967 4.34211C5.30006 4.34186 5.30044 4.34161 5.6979 4.95401L5.30045 4.34161C5.64361 4.1189 6.10234 4.21654 6.32506 4.5597C6.54698 4.90165 6.45082 5.35833 6.11062 5.58193" fill="#2196f3"/>
</svg>