<svg width="24" height="24" viewBox="0 0 24 24" fill="none" xmlns="http://www.w3.org/2000/svg">
<path fill-rule="evenodd" clip-rule="evenodd" d="M2.27763 4.9855C2.0503 3.46906 3.25832 2.25 4.69815 2.25H8.10738C8.42043 2.25 8.70055 2.44444 8.81003 2.73773L10.1329 6.2817C10.1804 6.409 10.1924 6.54682 10.1677 6.68043L9.50805 10.2457C10.3138 12.1445 11.6394 13.4253 13.841 14.5771L17.3287 13.8961C17.4669 13.8692 17.6099 13.8816 17.7413 13.9321L21.2695 15.2867C21.5593 15.398 21.7507 15.6764 21.7507 15.9869V19.2693C21.7507 20.7874 20.4186 22.0392 18.8422 21.6935L19.0029 20.9609L18.8422 21.6935C16.0627 21.0841 10.9044 19.5339 7.28919 15.8914L7.82151 15.363L7.28919 15.8913C3.82526 12.4012 2.66719 7.58407 2.27763 4.9855L2.27763 4.9855ZM4.69815 3.75C4.0883 3.75 3.68227 4.23755 3.76106 4.76312C4.13573 7.26236 5.23098 11.6882 8.35384 14.8347C11.6558 18.1616 16.46 19.6356 19.1635 20.2283L19.1635 20.2283C19.7045 20.3469 20.2507 19.9343 20.2507 19.2693V16.5023L17.4047 15.4096L13.8731 16.0991C13.7094 16.1311 13.5398 16.1076 13.3909 16.0323C10.7493 14.6964 9.02804 13.1085 8.03334 10.603C7.98126 10.4718 7.96726 10.3286 7.99294 10.1898L8.65497 6.61171L7.58679 3.75H4.69815Z" fill="#2196f3"/>
</svg>