<svg width="26" height="26" viewBox="0 0 26 26" fill="none" xmlns="http://www.w3.org/2000/svg">
<path d="M9.70783 14.013C10.9666 14.013 11.987 15.0334 11.987 16.2922V21.8636C11.987 23.1224 10.9666 24.1429 9.70783 24.1429H4.1364C2.87762 24.1429 1.85718 23.1224 1.85718 21.8636V16.2922C1.85718 15.0334 2.87762 14.013 4.1364 14.013H9.70783ZM21.8637 14.013C23.1224 14.013 24.1429 15.0334 24.1429 16.2922V21.8636C24.1429 23.1224 23.1224 24.1429 21.8637 24.1429H16.2922C15.0335 24.1429 14.013 23.1224 14.013 21.8636V16.2922C14.013 15.0334 15.0335 14.013 16.2922 14.013H21.8637ZM9.70783 1.85715C10.9666 1.85715 11.987 2.87759 11.987 4.13637V9.7078C11.987 10.9666 10.9666 11.987 9.70783 11.987H4.1364C2.87762 11.987 1.85718 10.9666 1.85718 9.7078V4.13637C1.85718 2.87759 2.87762 1.85715 4.1364 1.85715H9.70783ZM21.8637 1.85715C23.1224 1.85715 24.1429 2.87759 24.1429 4.13637V9.7078C24.1429 10.9666 23.1224 11.987 21.8637 11.987H16.2922C15.0335 11.987 14.013 10.9666 14.013 9.7078V4.13637C14.013 2.87759 15.0335 1.85715 16.2922 1.85715H21.8637Z" fill="white"/>
<path d="M21.8636 14.013C23.1224 14.013 24.1428 15.0334 24.1428 16.2922V21.8636C24.1428 23.1224 23.1224 24.1429 21.8636 24.1429H16.2922C15.0334 24.1429 14.0129 23.1224 14.0129 21.8636V16.2922C14.0129 15.0334 15.0334 14.013 16.2922 14.013H21.8636Z" fill="white"/>
</svg>
