<svg width="12" height="17" viewBox="0 0 12 17" fill="none" xmlns="http://www.w3.org/2000/svg">
<path d="M11.167 6.1625C11.167 3.15024 8.78851 0.708334 5.85449 0.708334C2.92047 0.708334 0.541992 3.15024 0.541992 6.1625C0.541992 7.2432 0.853153 8.24833 1.38061 9.09606H1.37454C3.16561 11.9751 5.85449 16.2917 5.85449 16.2917L10.3344 9.09606H10.3291C10.8558 8.24833 11.167 7.2432 11.167 6.1625ZM5.85449 8.5C4.59695 8.5 3.57771 7.45358 3.57771 6.1625C3.57771 4.87142 4.59695 3.825 5.85449 3.825C7.11204 3.825 8.13128 4.87142 8.13128 6.1625C8.13128 7.45358 7.11204 8.5 5.85449 8.5Z" fill="#508D1B"/>
</svg>
