<svg width="19" height="20" viewBox="0 0 19 20" fill="none" xmlns="http://www.w3.org/2000/svg">
<path fill-rule="evenodd" clip-rule="evenodd" d="M0.66075 16.8737C0.470457 16.8737 2.79609e-05 16.5114 2.79609e-05 16.5114L0 14.7038C0.341316 14.1847 0.711677 13.9323 1.03069 13.715C1.49424 13.3992 1.84937 13.1572 1.84937 12.2778V6.751C1.84937 3.69974 4.08214 1.11895 7.13525 0.286941L7.16475 0.278685C7.36081 0.223337 8.15191 0 9.25 0C10.4161 0 11.364 0.286941 11.364 0.286941C14.4172 1.11895 16.6499 3.69974 16.6499 6.751V12.2778C16.6499 13.1574 17.0051 13.3993 17.4689 13.7152C17.7879 13.9325 18.1583 14.1848 18.5 14.7038L18.5 16.5114C18.4059 16.6618 18.0296 16.8737 17.8393 16.8737H0.66075ZM15.7006 14.8737H2.79861C3.01234 14.6749 3.24309 14.411 3.43313 14.0633C3.74722 13.4886 3.84937 12.8748 3.84937 12.2778V6.751C3.84937 4.7361 5.34154 2.84868 7.66109 2.21658C7.66791 2.21472 7.67677 2.2122 7.68762 2.20913C7.84567 2.16431 8.42503 2 9.25 2C9.67624 2 10.0769 2.05321 10.3758 2.10924C10.5225 2.13673 10.6375 2.16354 10.7104 2.18184C10.7467 2.19095 10.7719 2.19781 10.7848 2.20141L10.7927 2.20362L10.8113 2.20924L10.8382 2.21658C13.1578 2.84868 14.6499 4.7361 14.6499 6.751V12.2778C14.6499 12.8747 14.752 13.4885 15.0661 14.0632C15.2561 14.4109 15.4869 14.6748 15.7006 14.8737ZM11.8929 17.5303H6.60714C6.82695 18.069 7.16077 18.5322 7.57221 18.8737C8.0468 19.2677 8.62468 19.5 9.24998 19.5C9.87528 19.5 10.4532 19.2677 10.9278 18.8737C11.3392 18.5322 11.6731 18.069 11.8929 17.5303Z" fill="#9E9E9E"/>
</svg>
