<svg width="19" height="20" viewBox="0 0 19 20" fill="none" xmlns="http://www.w3.org/2000/svg">
<path d="M6.60714 17.5303C7.08049 18.6905 8.08258 19.5 9.24998 19.5C10.4174 19.5 11.4195 18.6905 11.8929 17.5303H6.60714Z" fill="#4DC518"/>
<path d="M18.5 16.5114L18.5 14.7038C17.6617 13.4303 16.6499 13.7624 16.6499 12.2778V6.751C16.6499 3.69974 14.4172 1.11895 11.364 0.286941C11.364 0.286941 10.4161 0 9.25 0C8.08391 0 7.26401 0.251851 7.13525 0.286941C4.08214 1.11895 1.84937 3.69974 1.84937 6.751V12.2778C1.84937 13.7624 0.837288 13.4303 0 14.7038L2.79609e-05 16.5114C2.79609e-05 16.5114 0.470457 16.8737 0.66075 16.8737H17.8393C18.0296 16.8737 18.4059 16.6618 18.5 16.5114Z" fill="#4DC518"/>
</svg>
