<svg width="28" height="28" viewBox="0 0 28 28" fill="none" xmlns="http://www.w3.org/2000/svg">
<path d="M26.8334 1.16665H1.16665C0.5215 1.16665 0 1.68815 0 2.33335V21C0 21.644 0.5215 22.1666 1.16665 22.1666H15.1666V25.6666C15.1666 26.138 15.4501 26.5638 15.8865 26.7435C16.324 26.9244 16.8245 26.8251 17.1581 26.4915L19.8333 23.8164L22.5084 26.4915C22.7313 26.7144 23.0299 26.8334 23.3333 26.8334C23.4838 26.8334 23.6354 26.8042 23.7801 26.7435C24.2165 26.5639 24.5 26.138 24.5 25.6666V22.1666H26.8334C27.4785 22.1666 28 21.644 28 21V2.33335C28 1.68815 27.4785 1.16665 26.8334 1.16665ZM9.33335 17.5H5.83335C5.1882 17.5 4.6667 16.9774 4.6667 16.3334C4.6667 15.6882 5.1882 15.1667 5.83335 15.1667H9.33335C9.9785 15.1667 10.5 15.6882 10.5 16.3334C10.5 16.9774 9.9785 17.5 9.33335 17.5ZM11.6666 12.8334H5.83335C5.1882 12.8334 4.6667 12.3107 4.6667 11.6667C4.6667 11.0216 5.1882 10.5001 5.83335 10.5001H11.6667C12.3119 10.5001 12.8334 11.0216 12.8334 11.6667C12.8334 12.3106 12.3119 12.8334 11.6666 12.8334ZM5.83335 8.16665C5.1882 8.16665 4.6667 7.644 4.6667 7C4.6667 6.35485 5.1882 5.83335 5.83335 5.83335H15.1667C15.8119 5.83335 16.3334 6.35485 16.3334 7C16.3334 7.644 15.8119 8.16665 15.1667 8.16665H5.83335ZM22.1666 18.0404V22.8503L20.6581 21.3418C20.4306 21.1131 20.132 20.9999 19.8333 20.9999C19.5346 20.9999 19.2359 21.1131 19.0084 21.3418L17.5 22.8504V18.0402C17.5304 18.0577 15.1666 16.4419 15.1666 14.0001C15.1666 11.4217 17.2561 9.33341 19.8333 9.33341C22.4105 9.33335 24.5 11.4216 24.5 14C24.5 16.8208 22.2082 18.0223 22.1666 18.0404Z" fill="white"/>
<path d="M22.1667 18.0404V18.0401C22.1656 18.0408 22.1659 18.0407 22.1667 18.0404Z" fill="white"/>
</svg>
