<svg width="24" height="24" viewBox="0 0 24 24" fill="none" xmlns="http://www.w3.org/2000/svg">
<path fill-rule="evenodd" clip-rule="evenodd" d="M17.7732 7.01131C16.1232 7.01131 14.7863 5.58508 14.7863 3.81902V0.413498C14.7863 0.185218 14.6138 0 14.4001 0H4.8039C3.57312 0 2.57153 1.06876 2.57153 2.38656V21.6134C2.57153 22.9312 3.57312 24 4.8039 24H19.1953C20.4266 24 21.4287 22.9312 21.4287 21.6134V7.4248C21.4287 7.19652 21.2567 7.01131 21.0425 7.01131H17.7732ZM17.773 5.39316H20.4473C20.6028 5.39316 20.7439 5.29251 20.8035 5.13738C20.8631 4.98277 20.8296 4.80482 20.7187 4.68705C19.7418 3.64733 17.9266 1.71733 16.9536 0.688515C16.8427 0.571262 16.6774 0.53702 16.5335 0.601353C16.3906 0.665168 16.297 0.815625 16.297 0.982166V3.81906C16.2975 4.68289 16.9657 5.39316 17.773 5.39316ZM14.5466 10.6997C15.0609 10.149 15.9002 10.1465 16.4169 10.6997C16.9336 11.2529 16.9313 12.1516 16.4169 12.7023L15.9493 13.2029L9.87073 19.7113H9.30975L9.31246 19.7142L8.04092 19.7113H8.00039V19.7058L7.99761 18.3064L8.00039 18.3094V17.7088L14.079 11.2003L14.5466 10.6997Z" fill="white"/>
</svg>
