<svg width="26" height="26" viewBox="0 0 26 26" fill="none" xmlns="http://www.w3.org/2000/svg">
<path fill-rule="evenodd" clip-rule="evenodd" d="M19.2541 7.59558C17.4666 7.59558 16.0183 6.0505 16.0183 4.13727V0.447956C16.0183 0.200653 15.8315 0 15.6 0H5.20404C3.8707 0 2.78564 1.15783 2.78564 2.58544V23.4146C2.78564 24.8422 3.8707 26 5.20404 26H20.7948C22.1286 26 23.2142 24.8422 23.2142 23.4146V8.04354C23.2142 7.79623 23.0279 7.59558 22.7958 7.59558H19.2541ZM19.2539 5.84259H22.1511C22.3196 5.84259 22.4723 5.73355 22.5369 5.56549C22.6015 5.398 22.5652 5.20522 22.445 5.07763C21.3867 3.95128 19.4203 1.86044 18.3662 0.745891C18.246 0.618867 18.067 0.581772 17.9111 0.651466C17.7563 0.720599 17.655 0.883594 17.655 1.06401V4.13732C17.6555 5.07314 18.3794 5.84259 19.2539 5.84259ZM10.0026 11.5168C9.52563 11.0182 8.75236 11.0182 8.27543 11.5168C7.79849 12.0154 7.79849 12.8239 8.27543 13.3225L11.0757 16.25L8.27543 19.1775C7.79849 19.6761 7.79849 20.4846 8.27543 20.9832C8.75236 21.4818 9.52563 21.4818 10.0026 20.9832L12.8028 18.0556L15.6031 20.9832C16.08 21.4818 16.8533 21.4818 17.3302 20.9832C17.8071 20.4846 17.8071 19.6761 17.3302 19.1775L14.53 16.25L17.3302 13.3225C17.8071 12.8239 17.8071 12.0154 17.3302 11.5168C16.8533 11.0182 16.08 11.0182 15.6031 11.5168L12.8028 14.4444L10.0026 11.5168Z" fill="white"/>
</svg>
