<svg width="28" height="28" viewBox="0 0 28 28" fill="none" xmlns="http://www.w3.org/2000/svg">
<path d="M7.5 1.8125C7.5 1.59701 7.4144 1.39035 7.26202 1.23798C7.10965 1.0856 6.90299 1 6.6875 1C6.47201 1 6.26535 1.0856 6.11298 1.23798C5.9606 1.39035 5.875 1.59701 5.875 1.8125V2.625H4.25C3.38805 2.625 2.5614 2.96741 1.9519 3.5769C1.34241 4.1864 1 5.01305 1 5.875L1 7.5H27V5.875C27 5.01305 26.6576 4.1864 26.0481 3.5769C25.4386 2.96741 24.612 2.625 23.75 2.625H22.125V1.8125C22.125 1.59701 22.0394 1.39035 21.887 1.23798C21.7347 1.0856 21.528 1 21.3125 1C21.097 1 20.8903 1.0856 20.738 1.23798C20.5856 1.39035 20.5 1.59701 20.5 1.8125V2.625H7.5V1.8125ZM27 23.75V9.125H1V23.75C1 24.612 1.34241 25.4386 1.9519 26.0481C2.5614 26.6576 3.38805 27 4.25 27H23.75C24.612 27 25.4386 26.6576 26.0481 26.0481C26.6576 25.4386 27 24.612 27 23.75ZM18.6378 15.3878L13.7628 20.2628C13.6873 20.3384 13.5976 20.3984 13.4989 20.4394C13.4002 20.4804 13.2944 20.5015 13.1875 20.5015C13.0806 20.5015 12.9748 20.4804 12.8761 20.4394C12.7774 20.3984 12.6877 20.3384 12.6122 20.2628L10.1747 17.8253C10.0222 17.6727 9.93647 17.4658 9.93647 17.25C9.93647 17.0342 10.0222 16.8273 10.1747 16.6747C10.3273 16.5222 10.5342 16.4365 10.75 16.4365C10.9658 16.4365 11.1727 16.5222 11.3253 16.6747L13.1875 18.5386L17.4872 14.2372C17.6398 14.0847 17.8467 13.999 18.0625 13.999C18.2783 13.999 18.4852 14.0847 18.6378 14.2372C18.7903 14.3898 18.876 14.5967 18.876 14.8125C18.876 15.0283 18.7903 15.2352 18.6378 15.3878Z" fill="white"/>
</svg>
