<svg width="26" height="26" viewBox="0 0 26 26" fill="none" xmlns="http://www.w3.org/2000/svg">
<path d="M10.8642 4.64287C9.99244 4.64287 9.28564 5.2665 9.28564 6.03573C9.28564 6.80495 9.99244 7.42858 10.8642 7.42858H23.4928C24.3646 7.42858 25.0714 6.80495 25.0714 6.03573C25.0714 5.2665 24.3646 4.64287 23.4928 4.64287H10.8642Z" fill="white"/>
<path d="M23.4928 12.0714H10.8642C9.99244 12.0714 9.28564 12.6951 9.28564 13.4643C9.28564 14.2335 9.99244 14.8572 10.8642 14.8572H23.4928C24.3646 14.8572 25.0714 14.2335 25.0714 13.4643C25.0714 12.6951 24.3646 12.0714 23.4928 12.0714Z" fill="white"/>
<path d="M23.4928 19.5H10.8642C9.99244 19.5 9.28564 20.1236 9.28564 20.8929C9.28564 21.6621 9.99244 22.2857 10.8642 22.2857H23.4928C24.3646 22.2857 25.0714 21.6621 25.0714 20.8929C25.0714 20.1236 24.3646 19.5 23.4928 19.5Z" fill="white"/>
<path d="M6.46285 12.2852C6.37383 12.0011 6.13699 11.7939 5.85181 11.7511L4.84373 11.5991L4.39294 10.6518C4.2654 10.3839 4.00241 10.2143 3.71416 10.2143C3.42614 10.2143 3.16298 10.3839 3.03538 10.6518L2.5845 11.5991L1.57656 11.7511C1.29147 11.794 1.0545 12.0011 0.965522 12.2852C0.876501 12.5693 0.9508 12.8811 1.15696 13.0897L1.88637 13.8269L1.7141 14.8682C1.66535 15.1626 1.78212 15.4602 2.01515 15.6358C2.14706 15.7352 2.30308 15.7857 2.46007 15.7857C2.58046 15.7857 2.70145 15.7559 2.81217 15.6956L3.71398 15.204L4.61579 15.6956C4.7266 15.756 4.84749 15.7857 4.96789 15.7857C4.96857 15.7857 4.9694 15.7857 4.97 15.7857C5.38799 15.7856 5.72679 15.4343 5.72679 15.0009C5.72679 14.935 5.71904 14.871 5.70427 14.8099L5.54159 13.8269L6.271 13.0897C6.47757 12.8811 6.55187 12.5693 6.46285 12.2852Z" fill="white"/>
<path d="M6.46285 4.85661C6.37383 4.57249 6.13699 4.36538 5.85181 4.32248L4.84373 4.17053L4.39294 3.22326C4.2654 2.95536 4.00241 2.78572 3.71416 2.78572C3.42614 2.78572 3.16298 2.95536 3.03538 3.22326L2.5845 4.17053L1.57656 4.32248C1.29147 4.36547 1.05454 4.57249 0.965522 4.85661C0.876501 5.14072 0.9508 5.45256 1.15696 5.66111L1.88637 6.39836L1.7141 7.4396C1.66535 7.73399 1.78212 8.03156 2.01515 8.2072C2.14706 8.30659 2.30308 8.35715 2.46007 8.35715C2.58046 8.35715 2.70145 8.32733 2.81217 8.26703L3.71398 7.77541L4.61579 8.26703C4.7266 8.32743 4.84749 8.35715 4.96789 8.35715C4.96857 8.35715 4.9694 8.35715 4.97 8.35715C5.38799 8.35715 5.72679 8.00574 5.72679 7.57229C5.72679 7.50647 5.71904 7.44241 5.70427 7.3813L5.54159 6.39836L6.271 5.66111C6.47757 5.45256 6.55187 5.14072 6.46285 4.85661Z" fill="white"/>
<path d="M6.46285 19.7138C6.37383 19.4296 6.13699 19.2225 5.85181 19.1796L4.84373 19.0277L4.39293 18.0804C4.26539 17.8125 4.00241 17.6429 3.71415 17.6429C3.42613 17.6429 3.16296 17.8125 3.03537 18.0804L2.58449 19.0277L1.57654 19.1796C1.29145 19.2225 1.05448 19.4296 0.965502 19.7138C0.876527 19.9979 0.95078 20.3097 1.15694 20.5183L1.88635 21.2555L1.71409 22.2967C1.66533 22.5911 1.7821 22.8888 2.01514 23.0643C2.14704 23.1637 2.30307 23.2143 2.46006 23.2143C2.58045 23.2143 2.70144 23.1845 2.81215 23.1242L3.71397 22.6326L4.61579 23.1242C4.72659 23.1846 4.84749 23.2143 4.96788 23.2143C4.96857 23.2143 4.96939 23.2143 4.96999 23.2143C5.38799 23.2142 5.72678 22.8629 5.72678 22.4294C5.72678 22.3636 5.71903 22.2996 5.70427 22.2384L5.54159 21.2555L6.271 20.5183C6.47757 20.3097 6.55187 19.9979 6.46285 19.7138Z" fill="white"/>
</svg>
