<svg width="28" height="28" viewBox="0 0 28 28" fill="none" xmlns="http://www.w3.org/2000/svg">
<path d="M20.7351 6.29202H23.8552C24.0366 6.29202 24.2011 6.17459 24.2707 5.99361C24.3402 5.81323 24.3012 5.60562 24.1717 5.46822C23.032 4.25522 20.9144 2.00355 19.7792 0.803267C19.6497 0.666472 19.457 0.626523 19.2891 0.701579C19.1223 0.776029 19.0132 0.951563 19.0132 1.14586V4.45557C19.0137 5.46338 19.7933 6.29202 20.7351 6.29202Z" fill="white"/>
<path fill-rule="evenodd" clip-rule="evenodd" d="M17.2506 4.45552C17.2506 6.51592 18.8103 8.17986 20.7352 8.17986H24.5494C24.7993 8.17986 25 8.39594 25 8.66227V25.2157C25 26.7531 23.8309 28 22.3944 28H5.60443C4.16852 28 3 26.7531 3 25.2157V2.78432C3 1.24689 4.16852 0 5.60443 0H16.8C17.0493 0 17.2506 0.216088 17.2506 0.482414V4.45552ZM7.5 12C6.67157 12 6 12.6716 6 13.5C6 14.3284 6.67157 15 7.5 15H20.5C21.3284 15 22 14.3284 22 13.5C22 12.6716 21.3284 12 20.5 12H7.5ZM6 18.5C6 17.6716 6.67157 17 7.5 17H20.5C21.3284 17 22 17.6716 22 18.5C22 19.3284 21.3284 20 20.5 20H7.5C6.67157 20 6 19.3284 6 18.5ZM7.5 22C6.67157 22 6 22.6716 6 23.5C6 24.3284 6.67157 25 7.5 25H20.5C21.3284 25 22 24.3284 22 23.5C22 22.6716 21.3284 22 20.5 22H7.5Z" fill="white"/>
</svg>
