<svg width="24" height="24" viewBox="0 0 24 24" fill="none" xmlns="http://www.w3.org/2000/svg">
<path fill-rule="evenodd" clip-rule="evenodd" d="M21.288 23.1429H2.71211C1.67865 23.1429 0.857178 22.1865 0.857178 20.9983V2.9727C0.857178 1.81349 1.67865 0.857147 2.71211 0.857147H21.288C22.2949 0.857147 23.1429 1.78451 23.1429 2.9727V21.0273C23.1429 22.1865 22.3214 23.1429 21.288 23.1429ZM15.9344 7.1936C16.3816 6.745 17.1482 6.745 17.5954 7.1936L18.5218 8.12283C18.969 8.57143 18.969 9.34046 18.5218 9.78906L12.621 15.6813C12.5858 15.7293 12.5466 15.7751 12.5035 15.818L11.5265 16.7907C11.3972 16.9195 11.2424 17.013 11.0762 17.0711C10.9419 17.1197 10.7996 17.1436 10.6573 17.1428C10.3351 17.1445 10.0123 17.0271 9.77483 16.7907L5.4966 12.4975C5.02499 12.028 5.02499 11.223 5.4966 10.7534L6.47352 9.78075C6.94514 9.31118 7.75362 9.31118 8.22524 9.78075L10.778 12.3425L15.9344 7.1936Z" fill="white"/>
</svg>
