<svg width="28" height="28" viewBox="0 0 28 28" fill="none" xmlns="http://www.w3.org/2000/svg">
<path fill-rule="evenodd" clip-rule="evenodd" d="M3.90909 17.9661V19.9697C3.90909 20.773 3.25787 21.4242 2.45455 21.4242C1.65122 21.4242 1 20.773 1 19.9697L1 14.4545C1 13.6512 1.65122 13 2.45455 13L7.9697 13C8.77302 13 9.42424 13.6512 9.42424 14.4545C9.42424 15.2579 8.77302 15.9091 7.9697 15.9091L5.96613 15.9091L10.574 20.5169C11.142 21.085 11.142 22.0059 10.574 22.574C10.0059 23.142 9.08497 23.142 8.51694 22.574L3.90909 17.9661Z" fill="#E74C3C"/>
<path fill-rule="evenodd" clip-rule="evenodd" d="M12.3581 1.07371C8.54488 1.47146 5.04166 3.5809 2.83846 6.80596C2.0761 7.92192 1.87436 8.52664 2.06994 9.10955C2.33119 9.88802 3.24926 10.3189 3.96192 9.99738C4.37401 9.81148 4.47007 9.70583 5.12472 8.71842C5.74992 7.77533 6.10819 7.34307 6.8218 6.67086C8.12149 5.44655 9.91721 4.50927 11.6796 4.1353C13.0413 3.84631 15.0225 3.87914 16.2936 4.2117C16.6757 4.31161 17.3463 4.53791 17.784 4.71456C21.0921 6.04979 23.5524 9.24749 23.9997 12.7934C24.1187 13.7367 24.0455 15.2339 23.8366 16.1291C23.3986 18.0065 22.4986 19.6397 21.1578 20.9904C20.3637 21.7905 20.0571 22.0455 19.3577 22.4875C17.8264 23.4552 16.2625 23.9445 14.2197 24.0951C13.4434 24.1523 13.3122 24.1805 13.035 24.3497C12.6146 24.6062 12.4186 24.9938 12.4186 25.5686C12.4186 26.274 12.7668 26.7568 13.4002 26.9294C13.7398 27.022 14.5047 27.0236 15.293 26.9335C20.2419 26.3678 24.3902 23.1655 26.1867 18.5241C26.7406 17.093 26.9975 15.6748 27 14.034C27.0025 12.4376 26.806 11.2884 26.2587 9.69847C25.6119 7.81944 24.6458 6.31871 23.1042 4.79825C22.3469 4.05127 21.8923 3.68074 21.0502 3.12418C18.581 1.4922 15.4431 0.751964 12.3581 1.07371ZM13.9418 7.39089C13.6268 7.55626 13.3613 7.82715 13.2239 8.12323C13.1062 8.37695 13.0985 8.64648 13.0985 12.5479C13.0985 16.4493 13.1062 16.7188 13.2239 16.9725C13.2928 17.1211 13.4369 17.3247 13.544 17.4249C13.9578 17.8121 14.001 17.8171 16.9353 17.8154C19.4123 17.8141 19.6502 17.8039 19.8993 17.6888C21.0301 17.1665 21.0318 15.518 19.902 14.9881C19.6142 14.8531 19.4899 14.8446 17.8014 14.8446H16.0066V11.8081C16.0066 9.83127 15.9803 8.64912 15.9312 8.42066C15.8449 8.01899 15.4418 7.52276 15.0779 7.37016C14.7867 7.24809 14.1931 7.2589 13.9418 7.39089Z" fill="black"/>
</svg>
