<svg width="28" height="28" viewBox="0 0 28 28" fill="none" xmlns="http://www.w3.org/2000/svg">
<path d="M20.7351 6.29202H23.8552C24.0366 6.29202 24.2011 6.17459 24.2707 5.99361C24.3402 5.81323 24.3012 5.60562 24.1717 5.46822C23.032 4.25522 20.9144 2.00355 19.7792 0.803267C19.6497 0.666472 19.457 0.626523 19.2891 0.701579C19.1223 0.776029 19.0132 0.951563 19.0132 1.14586V4.45557C19.0137 5.46338 19.7933 6.29202 20.7351 6.29202Z" fill="white"/>
<path fill-rule="evenodd" clip-rule="evenodd" d="M17.2506 4.45552C17.2506 6.51592 18.8103 8.17986 20.7352 8.17986H24.5494C24.7993 8.17986 25 8.39594 25 8.66227V25.2157C25 26.7531 23.8309 28 22.3944 28H5.60443C4.16852 28 3 26.7531 3 25.2157V2.78432C3 1.24689 4.16852 0 5.60443 0H16.8C17.0493 0 17.2506 0.216088 17.2506 0.482414V4.45552ZM8 22.5C8 23.3284 8.67157 24 9.5 24C10.3284 24 11 23.3284 11 22.5V10.5C11 9.67157 10.3284 9 9.5 9C8.67157 9 8 9.67157 8 10.5L8 22.5ZM14.5 24C13.6716 24 13 23.3284 13 22.5V13.5C13 12.6716 13.6716 12 14.5 12C15.3284 12 16 12.6716 16 13.5V22.5C16 23.3284 15.3284 24 14.5 24ZM18 22.5C18 23.3284 18.6716 24 19.5 24C20.3284 24 21 23.3284 21 22.5V16.5C21 15.6716 20.3284 15 19.5 15C18.6716 15 18 15.6716 18 16.5V22.5Z" fill="white"/>
</svg>
