<svg width="24" height="24" viewBox="0 0 24 24" fill="none" xmlns="http://www.w3.org/2000/svg">
<g clip-path="url(#clip0_684_12438)">
<path d="M7.11111 1H3.44444C2.79614 1 2.17438 1.25754 1.71596 1.71596C1.25754 2.17438 1 2.79614 1 3.44444V7.11111M23 7.11111V3.44444C23 2.79614 22.7425 2.17438 22.284 1.71596C21.8256 1.25754 21.2039 1 20.5556 1H16.8889M16.8889 23H20.5556C21.2039 23 21.8256 22.7425 22.284 22.284C22.7425 21.8256 23 21.2039 23 20.5556V16.8889M1 16.8889V20.5556C1 21.2039 1.25754 21.8256 1.71596 22.284C2.17438 22.7425 2.79614 23 3.44444 23H7.11111" stroke="#A3A3A3" stroke-width="2" stroke-linecap="round" stroke-linejoin="round"/>
<path fill-rule="evenodd" clip-rule="evenodd" d="M18.9998 14.75H4.99976V15.75C4.99976 17.9591 6.79062 19.75 8.99976 19.75H14.9998C17.2089 19.75 18.9998 17.9591 18.9998 15.75V14.75Z" fill="#A3A3A3"/>
<path fill-rule="evenodd" clip-rule="evenodd" d="M18.9998 9.25H4.99976V8.25C4.99976 6.04086 6.79062 4.25 8.99976 4.25H14.9998C17.2089 4.25 18.9998 6.04086 18.9998 8.25V9.25Z" fill="#A3A3A3"/>
<rect x="1" y="11.25" width="22" height="1.5" rx="0.75" fill="#A3A3A3"/>
</g>
<defs>
<clipPath id="clip0_684_12438">
<rect width="24" height="24" fill="white"/>
</clipPath>
</defs>
</svg>
