<svg width="26" height="26" viewBox="0 0 26 26" fill="none" xmlns="http://www.w3.org/2000/svg">
<g clip-path="url(#clip0_745_14033)">
<path d="M25.83 6.29393L18.4431 13.6807L25.6477 20.8906C25.8658 20.5156 26.0001 20.0857 26.0001 19.6215V7.18641C26.0001 6.87126 25.9352 6.57262 25.83 6.29393Z" fill="white"/>
<path d="M23.4566 4.64285H2.54352C2.12066 4.64285 1.72767 4.7564 1.37646 4.93977L12.48 16.0432C12.8022 16.3654 13.3618 16.3654 13.6783 16.0432L24.7296 4.99731C24.3537 4.77778 23.9225 4.64285 23.4566 4.64285Z" fill="white"/>
<path d="M0.213332 6.1732C0.077543 6.48409 0 6.82594 0 7.18639V19.6214C0 20.0783 0.13066 20.5013 0.342418 20.8723L7.6248 13.5847L0.213332 6.1732Z" fill="white"/>
<path d="M17.2391 14.8846L14.8821 17.2472C13.8921 18.226 12.288 18.2421 11.2817 17.2472L8.82862 14.7886L1.62524 21.9868C1.91089 22.0981 2.21888 22.1649 2.54342 22.1649H23.4565C23.7731 22.1649 24.0732 22.0997 24.3531 21.9935L17.2391 14.8846Z" fill="white"/>
</g>
<defs>
<clipPath id="clip0_745_14033">
<rect width="26" height="26" fill="white"/>
</clipPath>
</defs>
</svg>
