<svg width="24" height="24" viewBox="0 0 24 24" fill="none" xmlns="http://www.w3.org/2000/svg">
<path fill-rule="evenodd" clip-rule="evenodd" d="M7 2.75C6.86193 2.75 6.75 2.86193 6.75 3V21C6.75 21.1381 6.86193 21.25 7 21.25H17C17.1381 21.25 17.25 21.1381 17.25 21V3C17.25 2.86193 17.1381 2.75 17 2.75H7ZM5.25 3C5.25 2.0335 6.0335 1.25 7 1.25H17C17.9665 1.25 18.75 2.0335 18.75 3V21C18.75 21.9665 17.9665 22.75 17 22.75H7C6.0335 22.75 5.25 21.9665 5.25 21V3Z" fill="#2196f3"/>
<path d="M9 2H15V3C15 3.27614 14.7761 3.5 14.5 3.5H9.5C9.22386 3.5 9 3.27614 9 3V2Z" fill="#2196f3"/>
<path d="M10 19.5C10 19.2239 10.2239 19 10.5 19H13.5C13.7761 19 14 19.2239 14 19.5C14 19.7761 13.7761 20 13.5 20H10.5C10.2239 20 10 19.7761 10 19.5Z" fill="#2196f3"/>
</svg>