<svg width="24" height="24" viewBox="0 0 24 24" fill="none" xmlns="http://www.w3.org/2000/svg">
<path d="M1.4103 23C1.34523 23.0002 1.28105 22.9848 1.2231 22.9553C1.16515 22.9257 1.11509 22.8828 1.07708 22.8301C1.03907 22.7774 1.0142 22.7163 1.00454 22.6521C0.994874 22.5878 1.0007 22.5222 1.02152 22.4607L2.63804 17.713C1.36626 15.6007 0.836698 13.1252 1.13321 10.6786C1.42972 8.2319 2.53536 5.95393 4.27501 4.20542C6.34042 2.15253 9.13621 1 12.0507 1C14.9651 1 17.7609 2.15253 19.8263 4.20542C21.647 6.04928 22.7583 8.47489 22.9649 11.0558C23.1716 13.6368 22.4603 16.2078 20.9561 18.317C19.4519 20.4262 17.2511 21.9385 14.7406 22.588C12.2301 23.2375 9.57066 22.9826 7.22976 21.8682L1.49215 23H1.4103ZM7.28296 21.0184C7.34702 21.0188 7.4101 21.0342 7.46712 21.0633C9.63229 22.1416 12.1107 22.4168 14.4603 21.8399C16.8099 21.263 18.8777 19.8715 20.295 17.9137C21.7123 15.9559 22.3869 13.559 22.1983 11.1507C22.0098 8.74246 20.9704 6.47937 19.2656 4.76518C18.3182 3.81911 17.1934 3.06864 15.9555 2.55662C14.7175 2.0446 13.3906 1.78106 12.0507 1.78106C10.7107 1.78106 9.38381 2.0446 8.14585 2.55662C6.9079 3.06864 5.78309 3.81911 4.83568 4.76518C3.20568 6.40957 2.181 8.55625 1.92836 10.856C1.67572 13.1557 2.20999 15.4731 3.44425 17.4311C3.477 17.4828 3.49769 17.5413 3.50477 17.6021C3.51186 17.6629 3.50516 17.7246 3.48517 17.7825L2.02826 22.0684L7.20929 21.0388L7.28296 21.0184Z" fill="#4DC518" stroke="#4DC518" stroke-width="0.5"/>
<path d="M14.9851 17.6881C14.8597 17.6949 14.734 17.6949 14.6086 17.6881C12.4355 17.4512 9.69769 15.3061 8.92422 14.5503C8.16712 13.7944 6.01449 11.0447 5.78122 8.87511C5.59297 7.14274 6.75113 5.96603 7.2586 5.53703C7.48551 5.34242 7.77825 5.24159 8.07709 5.25511L9.18205 5.29188C9.26285 5.29487 9.34096 5.32169 9.40651 5.36895C9.47206 5.41622 9.52212 5.48181 9.55037 5.55746C9.79591 6.20709 10.5898 8.36847 10.5898 8.92822C10.5898 9.41852 10.156 9.79849 9.77136 10.1335C9.68951 10.203 9.57901 10.301 9.51353 10.3705C9.92715 11.1252 10.4226 11.8322 10.9909 12.4788C11.6386 13.0461 12.3468 13.5407 13.1026 13.9537C13.1722 13.8843 13.2704 13.774 13.34 13.6963C13.6755 13.3123 14.0561 12.8792 14.5677 12.8792C15.1284 12.8792 17.2933 13.6718 17.944 13.917C18.0197 13.9452 18.0854 13.9951 18.1328 14.0606C18.1801 14.126 18.207 14.204 18.21 14.2847L18.2468 15.3878C18.2552 15.6854 18.1548 15.9759 17.9644 16.205C17.6028 16.6504 17.1498 17.0132 16.6358 17.269C16.1219 17.5249 15.559 17.6678 14.9851 17.6881ZM9.50535 13.9619C10.1806 14.6361 12.7793 16.6585 14.6987 16.8669C16.0451 17.0099 16.9863 16.0824 17.3301 15.6779C17.3915 15.6017 17.4234 15.506 17.4201 15.4083L17.3915 14.5911C16.4715 14.2228 15.5248 13.925 14.5595 13.7004C14.4286 13.7004 14.1053 14.0804 13.9661 14.2397C13.6878 14.5584 13.4668 14.8077 13.1476 14.8077C12.6279 14.8077 10.8149 13.4675 10.4098 13.063C10.0046 12.6585 8.67458 10.8363 8.67458 10.3337C8.67458 10.0273 8.92422 9.80666 9.24343 9.51657C9.39894 9.37766 9.77136 9.05897 9.78363 8.92414C9.55858 7.96044 9.26033 7.01525 8.89148 6.09678L8.07299 6.06818C7.97509 6.0649 7.87925 6.09679 7.80289 6.15807C7.39365 6.50127 6.46466 7.441 6.61199 8.78113C6.8207 10.7096 8.84647 13.2755 9.52172 13.966L9.50535 13.9619Z" fill="#4DC518" stroke="#4DC518" stroke-width="0.5"/>
</svg>
